<svg width="25" height="14" viewBox="0 0 25 14" fill="none" xmlns="http://www.w3.org/2000/svg">
<path d="M9.314 13L6.596 9.13C6.26 9.154 5.996 9.166 5.804 9.166H2.69V13H0.89V0.399999H5.804C7.436 0.399999 8.72 0.789999 9.656 1.57C10.592 2.35 11.06 3.424 11.06 4.792C11.06 5.764 10.82 6.592 10.34 7.276C9.86 7.96 9.176 8.458 8.288 8.77L11.276 13H9.314ZM5.75 7.636C6.89 7.636 7.76 7.39 8.36 6.898C8.96 6.406 9.26 5.704 9.26 4.792C9.26 3.88 8.96 3.184 8.36 2.704C7.76 2.212 6.89 1.966 5.75 1.966H2.69V7.636H5.75ZM19.1881 13.144C17.5081 13.144 16.2001 12.664 15.2641 11.704C14.3281 10.744 13.8601 9.364 13.8601 7.564V0.399999H15.6601V7.492C15.6601 10.192 16.8421 11.542 19.2061 11.542C20.3581 11.542 21.2401 11.212 21.8521 10.552C22.4641 9.88 22.7701 8.86 22.7701 7.492V0.399999H24.5161V7.564C24.5161 9.376 24.0481 10.762 23.1121 11.722C22.1761 12.67 20.8681 13.144 19.1881 13.144Z" fill="#787878"/>
</svg>
